<svg viewBox="0 0 400 400" xmlns="http://www.w3.org/2000/svg">
  <g fill="none" stroke="#111" stroke-width="2.5" stroke-linecap="round" stroke-linejoin="round">
    <!-- Face & Hair Outline -->
    <path d="M 60 320 
             C 60 220 100 150 120 100 
             C 100 30 160 10 220 20 
             C 270 10 320 20 300 80" />
             
    <!-- Wavy Hair Loops -->
    <path d="M 120 100 C 100 50 140 20 180 40 C 200 10 240 40 260 80 C 300 30 340 60 300 120" />
    <path d="M 140 80 C 120 40 160 30 190 50 C 210 30 250 50 270 90" />
    
    <!-- Right Cheek & Jaw -->
    <path d="M 300 120 C 300 200 320 250 320 320" />
    
    <!-- Eyes & Brows -->
    <path d="M 140 150 C 170 130 200 130 230 150" />
    <path d="M 150 160 Q 180 170 210 160" />
    <path d="M 190 160 Q 220 170 250 160" />
    
    <!-- Nose -->
    <path d="M 200 180 L 200 220 L 220 220" />
    
    <!-- Beard & Chin -->
    <path d="M 140 240 Q 200 280 260 240" />
    <path d="M 120 280 Q 200 380 280 280" />
    <path d="M 160 260 Q 200 300 240 260" />
    
    <!-- Mustache -->
    <path d="M 180 235 Q 200 240 220 235" />
    
    <!-- Blazer Collar -->
    <path d="M 120 320 C 120 300 160 320 180 360" />
    <path d="M 280 320 C 280 300 240 320 220 360" />
    <path d="M 60 360 L 180 360 L 220 360 L 340 360" />
    <path d="M 180 360 L 180 390" />
    <path d="M 220 360 L 220 390" />
  </g>
</svg>